<?xml version="1.0" encoding="UTF-8"?>
<!DOCTYPE svg PUBLIC "-//W3C//DTD SVG 1.1//EN" "http://www.w3.org/Graphics/SVG/1.1/DTD/svg11.dtd">
<svg version="1.1" xmlns="http://www.w3.org/2000/svg" xmlns:xlink="http://www.w3.org/1999/xlink" x="0" y="0" width="588.777" height="149.234" viewBox="0, 0, 588.777, 149.234">
  <g id="Capa_1" transform="translate(-11.583, -219.889)">
    <g>
      <g>
        <path d="M58.25,353.889 C52.75,353.889 11.583,292.329 11.583,266.556 C11.583,240.783 32.477,219.889 58.25,219.889 C84.023,219.889 104.917,240.783 104.917,266.556 C104.917,292.329 63.083,353.889 58.25,353.889 z" fill="#D60A44"/>
        <path d="M77.674,281.198 Q79.527,281.198 80.846,282.517 Q82.165,283.836 82.165,285.689 Q82.165,287.541 80.762,289.001 Q72.061,296.579 60.273,296.579 Q47.25,296.579 38.044,287.373 Q28.838,278.167 28.838,265.144 Q28.838,252.121 38.044,242.915 Q47.25,233.709 60.273,233.709 Q72.061,233.709 80.762,241.287 Q82.333,242.69 82.333,244.767 Q82.333,246.62 81.014,247.939 Q79.695,249.258 77.843,249.258 Q76.215,249.258 74.98,248.248 Q68.693,242.69 60.273,242.69 Q50.955,242.69 44.387,249.258 Q37.819,255.826 37.819,265.144 Q37.819,274.462 44.387,281.03 Q50.955,287.597 60.273,287.597 Q68.693,287.597 74.924,282.096 Q76.102,281.198 77.674,281.198 z" fill="#FFFFFF"/>
      </g>
      <g>
        <path d="M203.06,316.476 Q205.365,316.476 207.005,318.117 Q208.646,319.758 208.646,322.062 Q208.646,324.366 206.901,326.182 Q196.078,335.608 181.415,335.608 Q165.216,335.608 153.764,324.157 Q142.313,312.706 142.313,296.507 Q142.313,280.307 153.764,268.856 Q165.216,257.405 181.415,257.405 Q196.078,257.405 206.901,266.831 Q208.856,268.577 208.856,271.16 Q208.856,273.465 207.215,275.105 Q205.574,276.746 203.27,276.746 Q201.245,276.746 199.709,275.49 Q191.888,268.577 181.415,268.577 Q169.824,268.577 161.655,276.746 Q153.485,284.916 153.485,296.507 Q153.485,308.097 161.655,316.267 Q169.824,324.436 181.415,324.436 Q191.888,324.436 199.639,317.594 Q201.105,316.476 203.06,316.476 z" fill="#D62343"/>
        <path d="M259.618,268.577 Q248.027,268.577 239.858,276.746 Q231.688,284.916 231.688,296.507 Q231.688,308.097 239.858,316.267 Q248.027,324.436 259.618,324.436 Q271.209,324.436 279.378,316.267 Q287.548,308.097 287.548,296.507 Q287.548,284.916 279.378,276.746 Q271.209,268.577 259.618,268.577 z M287.548,323.878 Q275.817,335.608 259.618,335.608 Q243.419,335.608 231.968,324.157 Q220.516,312.706 220.516,296.507 Q220.516,280.307 231.968,268.856 Q243.419,257.405 259.618,257.405 Q275.817,257.405 287.268,268.856 Q298.72,280.307 298.72,296.507 L298.72,330.022 Q298.72,332.326 297.079,333.967 Q295.438,335.608 293.134,335.608 Q290.829,335.608 289.189,333.967 Q287.548,332.326 287.548,330.022 z" fill="#D62343"/>
        <path d="M309.891,262.991 Q309.891,260.687 311.532,259.046 Q313.173,257.405 315.477,257.405 Q317.782,257.405 319.422,259.046 Q321.063,260.687 321.063,262.991 L321.063,269.136 Q332.794,257.405 348.993,257.405 Q357.162,257.405 364.005,260.198 Q365.262,260.687 366.309,261.664 Q367.915,263.34 367.915,265.644 Q367.915,267.949 366.274,269.589 Q364.634,271.23 362.329,271.23 Q361.003,271.23 359.886,270.672 Q354.928,268.577 348.993,268.577 Q337.402,268.577 329.233,276.746 Q321.063,284.916 321.063,296.507 L321.063,330.022 Q321.063,332.326 319.422,333.967 Q317.782,335.608 315.477,335.608 Q313.173,335.608 311.532,333.967 Q309.891,332.326 309.891,330.022 z" fill="#D62343"/>
        <path d="M376.923,262.991 Q376.923,260.687 378.564,259.046 Q380.204,257.405 382.509,257.405 Q384.813,257.405 386.454,259.046 Q388.095,260.687 388.095,262.991 L388.095,269.136 Q399.825,257.405 416.024,257.405 Q424.194,257.405 431.036,260.198 Q432.293,260.687 433.341,261.664 Q434.947,263.34 434.947,265.644 Q434.947,267.949 433.306,269.589 Q431.665,271.23 429.361,271.23 Q428.034,271.23 426.917,270.672 Q421.959,268.577 416.024,268.577 Q404.433,268.577 396.264,276.746 Q388.095,284.916 388.095,296.507 L388.095,330.022 Q388.095,332.326 386.454,333.967 Q384.813,335.608 382.509,335.608 Q380.204,335.608 378.564,333.967 Q376.923,332.326 376.923,330.022 z" fill="#D62343"/>
        <path d="M460.712,279.236 L460.712,330.022 Q460.712,332.326 459.071,333.967 Q457.43,335.608 455.126,335.608 Q452.822,335.608 451.181,333.967 Q449.54,332.326 449.54,330.022 L449.54,280.289 C450.969,281.529 452.714,284.575 454.744,285.049 C457.127,283.91 459.132,281.225 460.712,279.236 z" fill="#D62343"/>
        <path d="M522.157,223.889 Q524.461,223.889 526.102,225.53 Q527.743,227.171 527.743,229.475 Q527.743,231.78 526.102,233.42 Q524.461,235.061 522.157,235.061 Q499.813,235.061 499.813,257.405 L499.813,261.595 L516.641,261.595 Q518.945,261.595 520.586,263.235 Q522.227,264.876 522.227,267.18 Q522.227,269.485 520.586,271.126 Q518.945,272.766 516.641,272.766 L499.813,272.766 L499.813,330.022 Q499.813,332.326 498.172,333.967 Q496.532,335.608 494.227,335.608 Q491.923,335.608 490.282,333.967 Q488.641,332.326 488.641,330.022 L488.641,272.766 L483.055,272.766 Q480.751,272.766 479.11,271.126 Q477.47,269.485 477.47,267.18 Q477.47,264.876 479.11,263.235 Q480.751,261.595 483.055,261.595 L488.641,261.595 L488.641,257.405 Q488.641,223.889 522.157,223.889 z" fill="#D62343"/>
        <path d="M560.77,329.952 L533.957,265.574 Q533.329,264.387 533.329,262.991 Q533.329,260.687 534.97,259.046 Q536.611,257.405 538.915,257.405 Q541.219,257.405 542.895,259.011 Q543.802,259.989 544.221,261.106 L566.844,315.359 L589.468,261.106 Q589.886,259.989 590.864,259.011 Q592.47,257.405 594.774,257.405 Q597.078,257.405 598.719,259.046 Q600.36,260.687 600.36,262.991 Q600.36,264.387 599.732,265.574 L558.116,365.423 Q557.698,366.54 556.79,367.448 Q555.114,369.124 552.81,369.124 Q550.506,369.124 548.865,367.483 Q547.224,365.842 547.224,363.538 Q547.224,362.141 547.852,360.954 z" fill="#D62343"/>
        <path d="M454.744,224.274 C465.824,224.274 474.807,233.256 474.807,244.336 C474.807,255.417 456.822,276.882 454.744,276.882 C452.379,276.882 434.681,255.417 434.681,244.336 C434.681,233.256 443.664,224.274 454.744,224.274 z M454.744,233.593 C448.945,233.593 444.244,238.294 444.244,244.093 C444.244,249.892 448.945,254.593 454.744,254.593 C460.543,254.593 465.244,249.892 465.244,244.093 C465.244,238.294 460.543,233.593 454.744,233.593 z" fill="#D60A44"/>
      </g>
    </g>
  </g>
</svg>
