<?xml version="1.0" encoding="UTF-8"?>
<!DOCTYPE svg PUBLIC "-//W3C//DTD SVG 1.1//EN" "http://www.w3.org/Graphics/SVG/1.1/DTD/svg11.dtd">
<svg version="1.1" xmlns="http://www.w3.org/2000/svg" xmlns:xlink="http://www.w3.org/1999/xlink" x="0" y="0" width="263.974" height="125.208" viewBox="0, 0, 263.974, 125.208">
  <g id="Capa_1" transform="translate(-173.026, -332.792)">
    <g>
      <path d="M246.939,421.044 Q246.939,436.354 236.116,447.177 Q225.293,458 209.983,458 Q194.672,458 183.849,447.177 Q173.026,436.354 173.026,421.044 Q173.026,405.733 183.849,394.91 Q194.672,384.087 209.983,384.087 Q225.293,384.087 236.116,394.91 Q246.939,405.733 246.939,421.044 z M209.983,392.271 Q198.104,392.271 189.657,400.718 Q181.21,409.165 181.21,421.044 Q181.21,432.922 189.657,441.37 Q198.104,449.817 209.983,449.817 Q221.862,449.817 230.309,441.37 Q238.69,432.988 238.69,421.044 Q238.69,409.099 230.309,400.718 Q221.862,392.271 209.983,392.271 z" fill="#FFFFFF"/>
      <path d="M315.704,441.964 Q317.42,441.964 318.608,443.184 Q319.796,444.405 319.796,446.121 Q319.796,447.837 318.542,449.091 Q313.526,453.38 307.389,455.69 Q301.252,458 294.454,458 Q279.144,458 268.321,447.177 Q257.498,436.354 257.498,421.044 Q257.498,405.733 268.321,394.91 Q279.144,384.087 294.454,384.087 Q301.252,384.087 307.422,386.397 Q313.592,388.707 318.542,392.996 Q319.136,393.59 319.565,394.448 Q319.994,395.306 319.994,396.23 Q319.994,397.946 318.806,399.134 Q317.618,400.322 315.902,400.322 Q314.318,400.322 313.262,399.332 Q305.211,392.271 294.454,392.271 Q282.575,392.271 274.128,400.718 Q265.747,409.099 265.747,421.044 Q265.747,432.988 274.128,441.37 Q282.575,449.817 294.454,449.817 Q299.668,449.817 304.518,447.903 Q309.369,445.989 313.262,442.756 Q314.252,441.964 315.704,441.964 z" fill="#FFFFFF"/>
      <path d="M346.919,366.269 Q346.919,368.579 345.335,370.163 Q343.751,371.747 341.442,371.747 Q339.198,371.747 337.581,370.163 Q335.964,368.579 335.964,366.269 Q335.964,364.025 337.581,362.409 Q339.198,360.792 341.442,360.792 Q343.751,360.792 345.335,362.409 Q346.919,364.025 346.919,366.269 z M337.35,388.179 Q337.35,386.463 338.538,385.275 Q339.726,384.087 341.442,384.087 Q343.157,384.087 344.378,385.275 Q345.599,386.463 345.599,388.179 L345.599,453.908 Q345.599,455.624 344.378,456.812 Q343.157,458 341.442,458 Q339.726,458 338.538,456.812 Q337.35,455.624 337.35,453.908 z" fill="#FFFFFF"/>
      <path d="M437,421.044 Q437,436.354 426.177,447.177 Q415.354,458 400.044,458 Q384.733,458 373.91,447.177 Q363.087,436.354 363.087,421.044 Q363.087,405.733 373.91,394.91 Q384.733,384.087 400.044,384.087 Q415.354,384.087 426.177,394.91 Q437,405.733 437,421.044 z M400.044,392.271 Q388.165,392.271 379.718,400.718 Q371.271,409.165 371.271,421.044 Q371.271,432.922 379.718,441.37 Q388.165,449.817 400.044,449.817 Q411.923,449.817 420.37,441.37 Q428.751,432.988 428.751,421.044 Q428.751,409.099 420.37,400.718 Q411.923,392.271 400.044,392.271 z" fill="#D62343"/>
      <g>
        <g>
          <path d="M341.762,376.686 C339.96,376.686 326.475,356.521 326.475,348.078 C326.475,339.636 333.319,332.792 341.762,332.792 C350.205,332.792 357.049,339.636 357.049,348.078 C357.049,356.521 343.345,376.686 341.762,376.686 z" fill="#D60A44"/>
          <path d="M348.125,354.228 Q348.732,354.228 349.164,354.66 Q349.596,355.092 349.596,355.699 Q349.596,356.306 349.136,356.784 Q346.286,359.266 342.425,359.266 Q338.159,359.266 335.143,356.251 Q332.127,353.235 332.127,348.969 Q332.127,344.703 335.143,341.687 Q338.159,338.672 342.425,338.672 Q346.286,338.672 349.136,341.154 Q349.651,341.614 349.651,342.294 Q349.651,342.901 349.219,343.333 Q348.787,343.765 348.18,343.765 Q347.647,343.765 347.242,343.434 Q345.183,341.614 342.425,341.614 Q339.372,341.614 337.221,343.765 Q335.069,345.917 335.069,348.969 Q335.069,352.021 337.221,354.173 Q339.372,356.324 342.425,356.324 Q345.183,356.324 347.224,354.522 Q347.61,354.228 348.125,354.228 z" fill="#FFFFFF"/>
        </g>
      </g>
    </g>
  </g>
</svg>
